<svg width="260" height="46" viewBox="0 0 260 46" fill="none" xmlns="http://www.w3.org/2000/svg">
<path d="M39.851 7.34473C39.6573 7.14348 39.4732 6.93648 39.2738 6.73715C39.0763 6.53973 38.8692 6.34998 38.6602 6.15831C34.4152 2.1867 28.8139 -0.0159019 22.9994 8.64366e-05C19.9763 -0.00804623 16.9816 0.583014 14.1885 1.73908C11.3953 2.89514 8.85926 4.59327 6.72692 6.73523C-2.04788 15.5059 -2.2358 29.6508 6.14973 38.6553C6.33957 38.8623 6.52749 39.0655 6.725 39.2686C6.92443 39.466 7.12769 39.652 7.33287 39.8436C11.5813 43.8131 17.1838 46.0146 22.9994 45.9999C29.1471 45.9999 34.9267 43.6099 39.2738 39.2686C48.0486 30.498 48.2346 16.353 39.851 7.34473ZM7.91389 7.92164C9.89054 5.93554 12.2415 4.36087 14.8309 3.2887C17.4203 2.21653 20.1967 1.66814 22.9994 1.67525C28.4165 1.67525 33.5269 3.68391 37.4771 7.34473L35.5576 9.26522C32.133 6.12114 27.6494 4.38163 22.9994 4.39307C20.5535 4.38639 18.1307 4.86474 15.871 5.80041C13.6114 6.73608 11.5599 8.11048 9.8353 9.84405C8.10148 11.5677 6.72691 13.618 5.79113 15.8762C4.85536 18.1345 4.37697 20.5558 4.38365 23C4.38365 27.692 6.10946 32.1099 9.25811 35.5522L7.33478 37.4708C-0.396855 29.1161 -0.205098 16.0368 7.91389 7.92164ZM34.3725 10.4478V10.4516L32.4262 12.3951C29.8365 10.0729 26.4786 8.79071 22.9994 8.79564C21.1327 8.7904 19.2836 9.1555 17.5591 9.86977C15.8346 10.584 14.2691 11.6333 12.9533 12.9567C11.6291 14.2723 10.5791 15.8374 9.8642 17.5613C9.14928 19.2853 8.78359 21.1338 8.7883 23C8.78317 26.4755 10.0653 29.8298 12.3876 32.4166L10.4432 34.3639C7.61281 31.2565 6.04957 27.2022 6.06152 23C6.05533 20.7759 6.49079 18.5727 7.34267 16.5181C8.19454 14.4635 9.44588 12.5982 11.0242 11.0305C12.5928 9.45299 14.4589 8.2023 16.5145 7.35084C18.5701 6.49937 20.7743 6.06407 22.9994 6.07015C27.243 6.07015 31.2469 7.62073 34.3725 10.4478ZM35.5346 23C35.5346 26.3446 34.2287 29.4917 31.8605 31.8588C29.4923 34.2259 26.3475 35.5311 22.9994 35.5311C19.9664 35.5333 17.0371 34.4285 14.7615 32.4242L14.7596 32.4166C14.5487 32.2364 14.3377 32.0562 14.1383 31.8588C13.9435 31.6574 13.7561 31.449 13.5765 31.234C11.5687 28.9612 10.4636 26.032 10.47 23C10.47 19.6535 11.772 16.5083 14.1402 14.1431C15.3007 12.9763 16.6813 12.0512 18.202 11.4215C19.7227 10.7917 21.3534 10.4699 22.9994 10.4746C26.0656 10.4746 28.9535 11.5786 31.2354 13.5796C31.4482 13.7636 31.6649 13.9438 31.8605 14.145C32.0599 14.3444 32.244 14.5552 32.4262 14.766C34.4328 17.0397 35.5383 19.9682 35.5346 23ZM13.5726 33.6068C16.1619 35.9288 19.5208 37.2116 22.9994 37.2082C24.8666 37.2134 26.7162 36.8478 28.4408 36.1325C30.1654 35.4172 31.7306 34.3664 33.0456 33.0414C34.3706 31.7267 35.4212 30.1621 36.1365 28.4384C36.8518 26.7146 37.2175 24.8661 37.2124 23C37.2152 19.5236 35.9342 16.1685 33.6151 13.5777L35.5576 11.638C38.3863 14.7456 39.9494 18.7987 39.9392 23C39.9459 25.2246 39.5105 27.4284 38.6583 29.4835C37.8061 31.5385 36.5539 33.404 34.9746 34.9715C33.4065 36.5495 31.5405 37.8006 29.4848 38.6521C27.4291 39.5036 25.2246 39.9386 22.9994 39.9318C18.7949 39.942 14.7387 38.3797 11.6282 35.5522L13.5726 33.6068ZM38.0849 38.0784C36.1088 40.0651 33.7579 41.64 31.1683 42.7119C28.5788 43.7838 25.8022 44.3314 22.9994 44.3228C17.6284 44.3376 12.4525 42.3117 8.51984 38.6553L10.4451 36.7367C13.869 39.8818 18.3531 41.6214 23.0032 41.6089C25.4495 41.6156 27.8727 41.1369 30.1324 40.2005C32.3921 39.2641 34.4434 37.8887 36.1674 36.154C37.9011 34.4307 39.2757 32.3808 40.2114 30.1229C41.1472 27.865 41.6256 25.444 41.619 23C41.6306 18.3525 39.8894 13.8713 36.7426 10.4497L38.6621 8.52922C46.3918 16.8839 46.2078 29.9613 38.0849 38.0784Z" fill="white"/>
<path d="M50.992 32V15.2H54.208L64.12 27.296H62.56V15.2H66.4V32H63.208L53.272 19.904H54.832V32H50.992ZM76.5188 32.192C75.0468 32.192 73.7508 31.904 72.6308 31.328C71.5268 30.752 70.6708 29.968 70.0628 28.976C69.4548 27.968 69.1508 26.824 69.1508 25.544C69.1508 24.248 69.4468 23.104 70.0388 22.112C70.6468 21.104 71.4708 20.32 72.5108 19.76C73.5508 19.184 74.7268 18.896 76.0388 18.896C77.3028 18.896 78.4388 19.168 79.4468 19.712C80.4708 20.24 81.2788 21.008 81.8708 22.016C82.4628 23.008 82.7588 24.2 82.7588 25.592C82.7588 25.736 82.7508 25.904 82.7348 26.096C82.7188 26.272 82.7028 26.44 82.6868 26.6H72.1988V24.416H80.7188L79.2788 25.064C79.2788 24.392 79.1428 23.808 78.8708 23.312C78.5988 22.816 78.2228 22.432 77.7428 22.16C77.2628 21.872 76.7028 21.728 76.0628 21.728C75.4228 21.728 74.8548 21.872 74.3588 22.16C73.8788 22.432 73.5028 22.824 73.2308 23.336C72.9588 23.832 72.8228 24.424 72.8228 25.112V25.688C72.8228 26.392 72.9748 27.016 73.2788 27.56C73.5988 28.088 74.0388 28.496 74.5988 28.784C75.1748 29.056 75.8468 29.192 76.6148 29.192C77.3028 29.192 77.9028 29.088 78.4148 28.88C78.9428 28.672 79.4228 28.36 79.8548 27.944L81.8468 30.104C81.2548 30.776 80.5108 31.296 79.6148 31.664C78.7188 32.016 77.6868 32.192 76.5188 32.192ZM83.2679 32L89.0519 24.416L88.9799 26.48L83.4359 19.088H87.6359L91.1399 23.912L89.5559 23.96L93.1799 19.088H97.1639L91.5959 26.408V24.392L97.3559 32H93.1079L89.4359 26.864L90.9959 27.08L87.3479 32H83.2679ZM104.919 32.192C103.543 32.192 102.319 31.904 101.247 31.328C100.191 30.752 99.3509 29.968 98.7269 28.976C98.1189 27.968 97.8149 26.824 97.8149 25.544C97.8149 24.248 98.1189 23.104 98.7269 22.112C99.3509 21.104 100.191 20.32 101.247 19.76C102.319 19.184 103.543 18.896 104.919 18.896C106.279 18.896 107.495 19.184 108.567 19.76C109.639 20.32 110.479 21.096 111.087 22.088C111.695 23.08 111.999 24.232 111.999 25.544C111.999 26.824 111.695 27.968 111.087 28.976C110.479 29.968 109.639 30.752 108.567 31.328C107.495 31.904 106.279 32.192 104.919 32.192ZM104.919 29.12C105.543 29.12 106.103 28.976 106.599 28.688C107.095 28.4 107.487 27.992 107.775 27.464C108.063 26.92 108.207 26.28 108.207 25.544C108.207 24.792 108.063 24.152 107.775 23.624C107.487 23.096 107.095 22.688 106.599 22.4C106.103 22.112 105.543 21.968 104.919 21.968C104.295 21.968 103.735 22.112 103.239 22.4C102.743 22.688 102.343 23.096 102.039 23.624C101.751 24.152 101.607 24.792 101.607 25.544C101.607 26.28 101.751 26.92 102.039 27.464C102.343 27.992 102.743 28.4 103.239 28.688C103.735 28.976 104.295 29.12 104.919 29.12ZM122.349 18.896C123.373 18.896 124.285 19.104 125.085 19.52C125.901 19.92 126.541 20.544 127.005 21.392C127.469 22.224 127.701 23.296 127.701 24.608V32H123.957V25.184C123.957 24.144 123.725 23.376 123.261 22.88C122.813 22.384 122.173 22.136 121.341 22.136C120.749 22.136 120.213 22.264 119.733 22.52C119.269 22.76 118.901 23.136 118.629 23.648C118.373 24.16 118.245 24.816 118.245 25.616V32H114.501V19.088H118.077V22.664L117.405 21.584C117.869 20.72 118.533 20.056 119.397 19.592C120.261 19.128 121.245 18.896 122.349 18.896ZM146.196 32.288C144.9 32.288 143.692 32.08 142.572 31.664C141.468 31.232 140.508 30.624 139.692 29.84C138.876 29.056 138.236 28.136 137.772 27.08C137.324 26.024 137.1 24.864 137.1 23.6C137.1 22.336 137.324 21.176 137.772 20.12C138.236 19.064 138.876 18.144 139.692 17.36C140.524 16.576 141.492 15.976 142.596 15.56C143.7 15.128 144.908 14.912 146.22 14.912C147.676 14.912 148.988 15.168 150.156 15.68C151.34 16.176 152.332 16.912 153.132 17.888L150.636 20.192C150.06 19.536 149.42 19.048 148.716 18.728C148.012 18.392 147.244 18.224 146.412 18.224C145.628 18.224 144.908 18.352 144.252 18.608C143.596 18.864 143.028 19.232 142.548 19.712C142.068 20.192 141.692 20.76 141.42 21.416C141.164 22.072 141.036 22.8 141.036 23.6C141.036 24.4 141.164 25.128 141.42 25.784C141.692 26.44 142.068 27.008 142.548 27.488C143.028 27.968 143.596 28.336 144.252 28.592C144.908 28.848 145.628 28.976 146.412 28.976C147.244 28.976 148.012 28.816 148.716 28.496C149.42 28.16 150.06 27.656 150.636 26.984L153.132 29.288C152.332 30.264 151.34 31.008 150.156 31.52C148.988 32.032 147.668 32.288 146.196 32.288ZM161.192 32.192C159.816 32.192 158.592 31.904 157.52 31.328C156.464 30.752 155.624 29.968 155 28.976C154.392 27.968 154.088 26.824 154.088 25.544C154.088 24.248 154.392 23.104 155 22.112C155.624 21.104 156.464 20.32 157.52 19.76C158.592 19.184 159.816 18.896 161.192 18.896C162.552 18.896 163.768 19.184 164.84 19.76C165.912 20.32 166.752 21.096 167.36 22.088C167.968 23.08 168.272 24.232 168.272 25.544C168.272 26.824 167.968 27.968 167.36 28.976C166.752 29.968 165.912 30.752 164.84 31.328C163.768 31.904 162.552 32.192 161.192 32.192ZM161.192 29.12C161.816 29.12 162.376 28.976 162.872 28.688C163.368 28.4 163.76 27.992 164.048 27.464C164.336 26.92 164.48 26.28 164.48 25.544C164.48 24.792 164.336 24.152 164.048 23.624C163.76 23.096 163.368 22.688 162.872 22.4C162.376 22.112 161.816 21.968 161.192 21.968C160.568 21.968 160.008 22.112 159.512 22.4C159.016 22.688 158.616 23.096 158.312 23.624C158.024 24.152 157.88 24.792 157.88 25.544C157.88 26.28 158.024 26.92 158.312 27.464C158.616 27.992 159.016 28.4 159.512 28.688C160.008 28.976 160.568 29.12 161.192 29.12ZM170.775 32V14.192H174.519V32H170.775ZM177.994 32V14.192H181.738V32H177.994ZM191.62 32.192C190.148 32.192 188.852 31.904 187.732 31.328C186.628 30.752 185.772 29.968 185.164 28.976C184.556 27.968 184.252 26.824 184.252 25.544C184.252 24.248 184.548 23.104 185.14 22.112C185.748 21.104 186.572 20.32 187.612 19.76C188.652 19.184 189.828 18.896 191.14 18.896C192.404 18.896 193.54 19.168 194.548 19.712C195.572 20.24 196.38 21.008 196.972 22.016C197.564 23.008 197.86 24.2 197.86 25.592C197.86 25.736 197.852 25.904 197.836 26.096C197.82 26.272 197.804 26.44 197.788 26.6H187.3V24.416H195.82L194.38 25.064C194.38 24.392 194.244 23.808 193.972 23.312C193.7 22.816 193.324 22.432 192.844 22.16C192.364 21.872 191.804 21.728 191.164 21.728C190.524 21.728 189.956 21.872 189.46 22.16C188.98 22.432 188.604 22.824 188.332 23.336C188.06 23.832 187.924 24.424 187.924 25.112V25.688C187.924 26.392 188.076 27.016 188.38 27.56C188.7 28.088 189.14 28.496 189.7 28.784C190.276 29.056 190.948 29.192 191.716 29.192C192.404 29.192 193.004 29.088 193.516 28.88C194.044 28.672 194.524 28.36 194.956 27.944L196.948 30.104C196.356 30.776 195.612 31.296 194.716 31.664C193.82 32.016 192.788 32.192 191.62 32.192ZM206.593 32.192C205.201 32.192 203.961 31.912 202.873 31.352C201.785 30.776 200.929 29.984 200.305 28.976C199.697 27.968 199.393 26.824 199.393 25.544C199.393 24.248 199.697 23.104 200.305 22.112C200.929 21.104 201.785 20.32 202.873 19.76C203.961 19.184 205.201 18.896 206.593 18.896C207.953 18.896 209.137 19.184 210.145 19.76C211.153 20.32 211.897 21.128 212.377 22.184L209.473 23.744C209.137 23.136 208.713 22.688 208.201 22.4C207.705 22.112 207.161 21.968 206.569 21.968C205.929 21.968 205.353 22.112 204.841 22.4C204.329 22.688 203.921 23.096 203.617 23.624C203.329 24.152 203.185 24.792 203.185 25.544C203.185 26.296 203.329 26.936 203.617 27.464C203.921 27.992 204.329 28.4 204.841 28.688C205.353 28.976 205.929 29.12 206.569 29.12C207.161 29.12 207.705 28.984 208.201 28.712C208.713 28.424 209.137 27.968 209.473 27.344L212.377 28.928C211.897 29.968 211.153 30.776 210.145 31.352C209.137 31.912 207.953 32.192 206.593 32.192ZM220 32.192C218.48 32.192 217.296 31.808 216.448 31.04C215.6 30.256 215.176 29.096 215.176 27.56V16.232H218.92V27.512C218.92 28.056 219.064 28.48 219.352 28.784C219.64 29.072 220.032 29.216 220.528 29.216C221.12 29.216 221.624 29.056 222.04 28.736L223.048 31.376C222.664 31.648 222.2 31.856 221.656 32C221.128 32.128 220.576 32.192 220 32.192ZM213.184 22.256V19.376H222.136V22.256H213.184ZM225.15 32V19.088H228.894V32H225.15ZM227.022 17.288C226.334 17.288 225.774 17.088 225.342 16.688C224.91 16.288 224.694 15.792 224.694 15.2C224.694 14.608 224.91 14.112 225.342 13.712C225.774 13.312 226.334 13.112 227.022 13.112C227.71 13.112 228.27 13.304 228.702 13.688C229.134 14.056 229.35 14.536 229.35 15.128C229.35 15.752 229.134 16.272 228.702 16.688C228.286 17.088 227.726 17.288 227.022 17.288ZM235.873 32L230.449 19.088H234.313L238.825 30.2H236.905L241.585 19.088H245.185L239.737 32H235.873ZM252.769 32.192C251.297 32.192 250.001 31.904 248.881 31.328C247.777 30.752 246.921 29.968 246.313 28.976C245.705 27.968 245.401 26.824 245.401 25.544C245.401 24.248 245.697 23.104 246.289 22.112C246.897 21.104 247.721 20.32 248.761 19.76C249.801 19.184 250.977 18.896 252.289 18.896C253.553 18.896 254.689 19.168 255.697 19.712C256.721 20.24 257.529 21.008 258.121 22.016C258.713 23.008 259.009 24.2 259.009 25.592C259.009 25.736 259.001 25.904 258.985 26.096C258.969 26.272 258.953 26.44 258.937 26.6H248.449V24.416H256.969L255.529 25.064C255.529 24.392 255.393 23.808 255.121 23.312C254.849 22.816 254.473 22.432 253.993 22.16C253.513 21.872 252.953 21.728 252.313 21.728C251.673 21.728 251.105 21.872 250.609 22.16C250.129 22.432 249.753 22.824 249.481 23.336C249.209 23.832 249.073 24.424 249.073 25.112V25.688C249.073 26.392 249.225 27.016 249.529 27.56C249.849 28.088 250.289 28.496 250.849 28.784C251.425 29.056 252.097 29.192 252.865 29.192C253.553 29.192 254.153 29.088 254.665 28.88C255.193 28.672 255.673 28.36 256.105 27.944L258.097 30.104C257.505 30.776 256.761 31.296 255.865 31.664C254.969 32.016 253.937 32.192 252.769 32.192Z" fill="white"/>
</svg>
